<svg width="96" height="88" viewBox="0 0 96 88" fill="none" xmlns="http://www.w3.org/2000/svg">
<path d="M75.5164 63.9304C74.9746 63.9304 74.4688 63.6414 74.1979 63.1357C73.8186 62.4133 74.1076 61.5283 74.812 61.149C74.9565 61.0587 77.3225 59.5777 77.3225 54.2857C77.3225 52.1726 76.871 50.7277 75.986 50.1136C74.9384 49.3731 73.4213 49.8788 73.4032 49.8788C72.9878 50.0233 72.5002 49.9691 72.1389 49.7343C71.7597 49.4995 71.5068 49.1022 71.4526 48.6687C71.4345 48.4881 69.1046 31.0771 57.2023 31.0771C43.7467 31.0771 39.0146 29.1445 32.7835 23.4191C26.4621 26.6521 23.7709 34.8338 24.5837 48.3797C24.6198 48.8674 24.385 49.355 23.9877 49.6621C23.5903 49.9691 23.0666 50.0413 22.597 49.8788C22.597 49.8788 21.0618 49.3731 20.0142 50.1136C19.1473 50.7277 18.6957 52.1726 18.6957 54.2857C18.6957 59.6319 21.0979 61.0767 21.2062 61.149C21.9106 61.5463 22.1635 62.4494 21.7842 63.1538C21.4049 63.8582 20.5199 64.1291 19.8155 63.7679C19.653 63.6776 15.7337 61.5644 15.7337 54.2857C15.7337 51.107 16.6006 48.8854 18.3345 47.6753C19.4001 46.9348 20.6825 46.7542 21.5313 46.7542C20.9895 32.2872 24.5837 23.6178 32.4945 20.2945C33.0364 20.0597 33.6685 20.1862 34.0839 20.5835C40.1344 26.327 44.126 28.115 57.2023 28.115C69.502 28.115 73.2226 42.0222 74.1437 46.7723C75.1732 46.7 76.5098 46.8445 77.7018 47.6934C79.4357 48.9035 80.3026 51.125 80.3026 54.3038C80.3026 61.5825 76.3833 63.6956 76.2208 63.7859C75.9679 63.8943 75.7331 63.9304 75.5164 63.9304Z" fill="#FBC300"/>
<path d="M74.4146 49.9692C74.0715 49.9692 73.7283 49.8427 73.4393 49.6079C72.8253 49.0661 72.753 48.1269 73.2948 47.5128C73.331 47.4587 77.8282 41.968 77.8282 27.6636C77.8282 13.0882 62.3497 3.42541 52.1271 3.42541C41.5251 3.42541 37.353 10.0178 37.2988 10.09C36.9918 10.5957 36.3957 10.8666 35.7817 10.7763C33.4156 10.379 28.0876 11.0653 23.8432 14.6595C20.0323 17.8924 18.1178 22.5342 18.1358 28.4583C19.1292 42.6905 25.3603 47.2239 25.4326 47.26C26.1008 47.7296 26.2634 48.6507 25.8119 49.319C25.3423 49.9872 24.4392 50.1678 23.7709 49.6982C23.4639 49.4815 16.2936 44.4605 15.1919 28.5486C15.1557 19.9153 18.8583 15.0027 21.9468 12.3838C26.0828 8.8799 31.5734 7.45307 35.3482 7.72398C36.9556 5.68307 42.067 0.445312 52.1271 0.445312C63.8127 0.445312 80.8083 11.0472 80.8083 27.6455C80.8083 43.1962 75.7512 49.1925 75.5344 49.4273C75.2455 49.8066 74.8301 49.9692 74.4146 49.9692Z" fill="#FBC300"/>
<path d="M94.1014 61.2213H1.88072C1.06796 61.2213 0.399696 60.5531 0.399696 59.7403C0.399696 58.9275 1.06796 58.2593 1.88072 58.2593H94.1014C94.9142 58.2593 95.5824 58.9275 95.5824 59.7403C95.5824 60.5531 94.9322 61.2213 94.1014 61.2213Z" fill="#FBC300"/>
<path d="M72.4821 66.2423C72.3918 66.2423 72.3015 66.2423 72.2112 66.2243C71.3984 66.0798 70.8746 65.3031 71.0191 64.4904C71.3081 62.9371 71.4526 61.3297 71.4526 59.7403C71.4526 58.9275 72.1209 58.2593 72.9336 58.2593C73.7464 58.2593 74.4146 58.9275 74.4146 59.7403C74.4146 61.5103 74.2521 63.2984 73.945 65.0322C73.8006 65.7366 73.1865 66.2423 72.4821 66.2423Z" fill="#FBC300"/>
<path d="M72.2107 66.2244C71.416 66.0799 70.8742 65.3033 71.0187 64.5086C71.1632 63.7139 71.9398 63.1721 72.7345 63.3166C73.5292 63.461 74.071 64.2377 73.9265 65.0324C73.8001 65.7368 73.186 66.2425 72.4816 66.2425C72.3913 66.2425 72.301 66.2244 72.2107 66.2244Z" fill="#FBC300"/>
<path d="M48.0087 87.5185C46.2207 87.5185 44.4507 87.3018 42.6987 86.9586C42.0124 86.8141 41.5067 86.182 41.5428 85.5137C41.5428 85.3873 41.5428 85.297 41.5789 85.2067C41.7234 84.412 42.5362 83.8701 43.3309 84.0508C46.329 84.701 49.4717 84.701 52.6505 84.0508C52.6866 84.0508 52.6866 84.0508 52.6866 84.0508C53.5174 83.8701 54.294 84.412 54.4746 85.1706C54.5108 85.297 54.5108 85.4053 54.5108 85.4595C54.5108 86.1639 54.0412 86.7961 53.3187 86.9406C51.5668 87.3018 49.7968 87.5185 48.0087 87.5185ZM33.8848 82.9129C33.5959 82.9129 33.2888 82.8226 33.0179 82.6059C30.2003 80.583 27.7982 78.0183 25.9379 75.0202C25.9018 74.984 25.8837 74.966 25.8476 74.8937C25.8476 74.8576 25.8115 74.8576 25.8115 74.8395C25.685 74.6409 25.5947 74.3699 25.5947 74.1351C25.5947 73.5933 25.8656 73.1237 26.2991 72.8528C26.9493 72.4374 27.9066 72.6541 28.322 73.3043C28.322 73.3043 28.3581 73.3043 28.3581 73.3405C28.3942 73.3766 28.3942 73.3946 28.4123 73.4308C30.11 76.1219 32.2413 78.4157 34.7518 80.2218C35.1311 80.5108 35.3478 80.9262 35.3478 81.4138C35.3839 81.7389 35.2575 82.0279 35.0769 82.2988C34.806 82.6781 34.3725 82.9129 33.8848 82.9129ZM62.0965 82.8768C61.6269 82.8768 61.1754 82.6781 60.9045 82.2808C60.6877 82.0098 60.6155 81.7209 60.6155 81.3958C60.6155 80.9262 60.8503 80.4746 61.2295 80.2037C63.7762 78.3615 65.9074 76.0135 67.6413 73.2863C68.0567 72.6361 69.0139 72.4013 69.6642 72.8167C70.3685 73.2682 70.5853 74.1532 70.1699 74.8576C68.2734 77.9099 65.8352 80.5108 62.9634 82.5878C62.7286 82.8045 62.4216 82.8768 62.0965 82.8768ZM23.5177 66.2785C22.8133 66.2785 22.1812 65.7728 22.0728 65.0684C22.0367 65.0323 22.0367 65.0142 22.0367 64.9781C21.9102 64.1834 22.4521 63.4429 23.2468 63.2984C24.0415 63.1539 24.8181 63.7138 24.9626 64.4905V64.5446C24.9987 64.635 24.9987 64.7253 24.9987 64.8336C24.9987 65.52 24.4569 66.134 23.7886 66.2605C23.6983 66.2785 23.608 66.2785 23.5177 66.2785Z" fill="#FBC300"/>
<path d="M23.5 66.2423C22.7956 66.2423 22.1815 65.7366 22.0371 65.0322C21.73 63.2984 21.5675 61.5284 21.5675 59.7403C21.5675 58.9275 22.2357 58.2593 23.0485 58.2593C23.8612 58.2593 24.5295 58.9275 24.5295 59.7403C24.5295 61.3477 24.674 62.9371 24.963 64.4904C25.1075 65.3031 24.5837 66.0617 23.7709 66.2243C23.6806 66.2423 23.5903 66.2423 23.5 66.2423Z" fill="#FBC300"/>
<path d="M48.0814 76.2664C45.3902 76.2664 42.7533 75.851 40.2067 75.0202C39.43 74.7673 38.9966 73.9184 39.2494 73.1418C39.5023 72.3652 40.3512 71.9497 41.1278 72.1845C45.5709 73.6294 50.4293 73.6656 54.8905 72.2387C55.6671 72.0039 56.4979 72.4193 56.7508 73.196C57.0036 73.9726 56.5702 74.8034 55.7935 75.0563C53.3011 75.851 50.7002 76.2664 48.0814 76.2664Z" fill="#FBC300"/>
<path d="M58.9904 54.9901C58.1776 54.9901 57.5093 54.3219 57.5093 53.5091V48.4881C57.5093 47.6753 58.1776 47.0071 58.9904 47.0071C59.8031 47.0071 60.4714 47.6753 60.4714 48.4881V53.5091C60.4894 54.3219 59.8212 54.9901 58.9904 54.9901Z" fill="#FBC300"/>
<path d="M36.9918 54.9901C36.179 54.9901 35.5107 54.3219 35.5107 53.5091V48.4881C35.5107 47.6753 36.179 47.0071 36.9918 47.0071C37.8045 47.0071 38.4728 47.6753 38.4728 48.4881V53.5091C38.4728 54.3219 37.8045 54.9901 36.9918 54.9901Z" fill="#FBC300"/>
</svg>
