<svg width="33" height="32" viewBox="0 0 33 32" fill="none" xmlns="http://www.w3.org/2000/svg">
<path d="M25.83 26.6667C14.4545 26.6828 5.82117 17.946 5.83334 6.67005C5.83334 5.93367 6.43029 5.33337 7.16667 5.33337H10.6858C11.3466 5.33337 11.9079 5.81888 12.0049 6.47248C12.2375 8.03897 12.6936 9.564 13.3593 11.001L13.4963 11.2967C13.6868 11.7079 13.5577 12.1965 13.1889 12.4599C12.0991 13.2382 11.6826 14.8048 12.5316 16.0272C13.597 17.5612 14.9401 18.9039 16.4737 19.9689C17.696 20.8177 19.2624 20.4012 20.0407 19.3116C20.3042 18.9426 20.7931 18.8134 21.2045 19.004L21.4989 19.1403C22.936 19.806 24.4611 20.2621 26.0278 20.4946C26.6814 20.5916 27.1667 21.1529 27.1667 21.8137V25.3333C27.1667 26.0697 26.5683 26.6667 25.8319 26.6667L25.83 26.6667Z" fill="black"/>
</svg>
