<svg width="32" height="32" viewBox="0 0 32 32" fill="none" xmlns="http://www.w3.org/2000/svg">
<g clip-path="url(#clip0_197_4)">
<path fill-rule="evenodd" clip-rule="evenodd" d="M2.252 2.24767C0 4.49966 0 8.12018 0 15.3569V16.6345C0 23.8798 0 27.5003 2.252 29.748C4.49966 32 8.12018 32 15.3612 32H16.6431C23.8842 32 27.5047 32 29.7523 29.748C32.0043 27.496 32.0043 23.8798 32.0043 16.6345V15.3569C32.0043 8.11585 32.0043 4.49533 29.7523 2.24333C27.5003 0 23.8798 0 16.6388 0H15.3569C8.12018 0 4.49533 0 2.252 2.24767Z" fill="#1D76FF"/>
<path fill-rule="evenodd" clip-rule="evenodd" d="M5.40051 9.7312C5.57807 18.0506 9.7356 23.0526 17.0243 23.0526H17.44V18.2931C20.1164 18.5573 22.1476 20.5191 22.9574 23.0526H26.7425C25.7031 19.2675 22.9704 17.1758 21.2641 16.3746C22.9704 15.3872 25.3696 12.9879 25.9413 9.73553H22.5027C21.7578 12.3773 19.5448 14.7765 17.4357 15.0017V9.7312H13.9927V18.9601C11.862 18.4274 9.16827 15.8419 9.04701 9.7312H5.40051Z" fill="white"/>
</g>
<defs>
<clipPath id="clip0_197_4">
<rect width="32" height="32" fill="white"/>
</clipPath>
</defs>
</svg>
